<svg width="16" height="16" viewBox="0 0 16 16" fill="none" xmlns="http://www.w3.org/2000/svg">
<path d="M7.99996 0.563721C3.89933 0.563721 0.563354 3.89969 0.563354 8.00031C0.563354 12.1009 3.89933 15.4369 7.99996 15.4369C8.37314 15.4369 8.67601 15.134 8.67601 14.7609C8.67601 14.3877 8.37314 14.0848 7.99996 14.0848C4.64505 14.0848 1.91546 11.3552 1.91546 8.00031C1.91546 4.64541 4.64505 1.91583 7.99996 1.91583C11.3549 1.91583 14.0844 4.64541 14.0844 8.00031C14.0844 8.3735 14.3873 8.67637 14.7605 8.67637C15.1337 8.67637 15.4366 8.3735 15.4366 8.00031C15.4366 3.89969 12.1006 0.563721 7.99996 0.563721Z" fill="white"/>
</svg>
