<svg width="22" height="18" viewBox="0 0 22 18" fill="none" xmlns="http://www.w3.org/2000/svg">
<path d="M20.3897 2.09093H3.99999V2.24093L3.79491 1.5059C3.54783 0.619187 2.75831 0 1.875 0H0.500016C0.223641 0 0 0.233806 0 0.522744C0 0.811682 0.223641 1.04549 0.500016 1.04549H1.875C2.31689 1.04549 2.71144 1.35486 2.83496 1.79846L5.94727 12.9539L4.35253 15.0376C4.125 15.3353 3.99999 15.7084 3.99999 16.0892C3.99999 17.0178 4.72214 17.7728 5.61033 17.7728H19.5C19.7764 17.7728 20 17.5389 20 17.25C20 16.9611 19.7764 16.7273 19.5 16.7273H5.61033C5.27391 16.7273 4.99997 16.4409 4.99997 16.0892C4.99997 15.9447 5.04732 15.8028 5.13375 15.6905L6.74058 13.5909H16.5478C17.3188 13.5909 18.0293 13.1197 18.3579 12.3903L21.8472 4.63868C21.9473 4.41561 22 4.16803 22 3.92247V3.77442C22 2.84591 21.2778 2.09093 20.3897 2.09093ZM21 3.92252C21 4.01592 20.98 4.10986 20.9419 4.19411L17.4531 11.9451C17.2886 12.3096 16.9336 12.5455 16.5478 12.5455H6.87502L4.24983 3.13637H20.3897C20.7261 3.13637 21 3.42276 21 3.77447V3.92252Z" fill="#372821"/>
</svg>
